<?xml version="1.0" encoding="UTF-8"?>
<svg width="302px" height="367px" viewBox="0 0 302 367" version="1.1" xmlns="http://www.w3.org/2000/svg" xmlns:xlink="http://www.w3.org/1999/xlink">
    <title>Group 2</title>
    <g id="Page-1" stroke="none" stroke-width="1" fill="none" fill-rule="evenodd">
        <g id="Group-2" transform="translate(0.000000, 0.000000)" fill="#FFFFFF">
            <path d="M235.011664,341.414379 C242.076938,341.414379 247.804474,347.141916 247.804474,354.20719 C247.804474,361.272464 242.076938,367 235.011664,367 L13.8863074,367 C6.82103334,367 1.09349708,361.272464 1.09349708,354.20719 C1.09349708,347.141916 6.82103334,341.414379 13.8863074,341.414379 L235.011664,341.414379 Z M289.20719,271.791353 C296.272464,271.791353 302,277.518889 302,284.584163 C302,291.649437 296.272464,297.376974 289.20719,297.376974 L13.8863073,297.376974 C6.82103329,297.376974 1.09349703,291.649437 1.09349703,284.584163 C1.09349703,277.518889 6.82103329,271.791353 13.8863073,271.791353 L289.20719,271.791353 Z M289.20719,201.791353 C296.272464,201.791353 302,207.518889 302,214.584163 C302,221.649437 296.272464,227.376974 289.20719,227.376974 L13.8863073,227.376974 C6.82103329,227.376974 1.09349703,221.649437 1.09349703,214.584163 C1.09349703,207.518889 6.82103329,201.791353 13.8863073,201.791353 L289.20719,201.791353 Z M102.26214,0 C129.324093,2.13422729e-15 151.26214,21.9380473 151.26214,49 L151.26214,102.389604 C151.26214,129.451557 129.324093,151.389604 102.26214,151.389604 L49,151.389604 C21.9380473,151.389604 1.04195607e-14,129.451557 0,102.389604 L0,49 C3.79129398e-15,21.9380473 21.9380473,1.20766274e-14 49,0 L102.26214,0 Z M75.6144025,22.6679621 C53.3630235,22.6679621 36.5214924,38.6354905 32.2486668,64.8453172 L32.1230418,65.6426836 L30.2230994,65.6430171 C25.5932349,65.6430171 21.8399881,69.3962639 21.8399881,74.0261284 C21.8399881,78.7407533 25.2514321,82.7468141 29.8755504,83.5196282 L30.1436563,83.5606085 L32.6979839,83.9147861 C33.0867786,83.9686956 33.4788263,83.9957464 33.8713407,83.9957464 C38.5896231,83.9957464 42.4145466,80.1708228 42.4145466,75.4525405 C42.4145466,71.9242125 40.5517486,68.8309643 37.7548207,67.1019249 C41.2886009,43.2970064 56.0987741,28.7608338 75.7333392,28.7608338 C88.7372197,28.7608338 99.6249527,35.1369091 106.522193,46.4126593 L106.792376,46.8602961 L104.705784,47.4556906 C102.272449,48.1484408 100.490718,51.3302012 100.400946,55.0864635 L100.397393,55.3841692 L100.397393,90.7223816 C100.397393,94.5621253 102.165483,97.8543579 104.607729,98.6215386 L104.796905,98.6755387 L110.081703,100.033744 C105.399945,106.415606 99.8801271,111.129193 93.5224489,114.172723 C92.3062277,112.120317 90.0043439,110.895677 87.5662626,111.096864 L87.3045617,111.123903 L75.8736375,112.543282 C71.1851857,113.125447 67.6651412,117.109608 67.6651412,121.834065 C67.6651412,122.070528 67.676039,122.306865 67.6977998,122.542325 C68.0889609,126.774816 71.8371717,129.88883 76.0696643,129.497683 C80.3854911,129.09882 83.2690631,128.645671 84.7203804,128.138235 C85.9688951,127.701707 87.6549698,126.701419 89.7791534,125.13639 C104.39765,120.407986 117.070203,108.142376 125.612531,90.3427781 C125.9303,89.8701254 126.179117,89.344006 126.344656,88.7819081 C126.594589,88.2363991 126.840721,87.6859264 127.082992,87.1305446 C127.536728,86.0904018 127.92926,84.9244354 128.260318,83.6321158 C128.916074,83.1706098 129.322765,82.5990077 129.381452,81.9820669 L129.388817,81.8269246 L129.387988,76.3649621 L129.422152,75.9196607 L129.387988,75.9519621 L129.388817,69.0320546 L129.382531,68.8887424 C129.295038,67.893128 128.300776,67.0128486 126.81122,66.5220681 L126.584123,66.4514066 L126.583195,62.7559235 L126.578237,62.513452 C126.476101,60.0195722 124.805884,57.8998471 122.499916,57.337524 L122.274805,57.2880072 L117.725628,56.394826 L117.484396,56.3535329 C117.323627,56.3300575 117.163078,56.3147047 117.003449,56.3075693 C116.383859,54.2157767 115.67449,52.2087338 114.880694,50.2919234 C114.831589,50.1662185 114.781212,50.0382291 114.729565,49.9079554 C114.634168,49.6673322 114.531437,49.4363927 114.422363,49.2156997 C107.049239,32.392305 92.9791396,22.6679621 75.6144025,22.6679621 Z" id="Combined-Shape"></path>
        </g>
    </g>
</svg>