<?xml version="1.0" encoding="UTF-8"?>
<!DOCTYPE svg
PUBLIC "-//W3C//DTD SVG 1.1//EN" "http://www.w3.org/Graphics/SVG/1.1/DTD/svg11.dtd">
<svg version="1.1" xmlns="http://www.w3.org/2000/svg" xmlns:xlink="http://www.w3.org/1999/xlink" width="30" height="30">
<g id="Regular-L" transform="matrix(.15 0 0 .15 2 20)">
<path d="M40.3809-5.61523L118.848-5.61523C139.16-5.61523 154.492-20.9961 154.492-40.1855C154.492-59.9121 138.232-74.3652 117.139-74.3652C109.277-90.0879 94.9219-100.244 76.4648-100.244C53.0273-100.244 33.6914-81.6895 31.6895-58.252C20.166-55.0293 11.2793-45.2637 11.2793-32.0312C11.2793-17.4316 21.9238-5.61523 40.3809-5.61523ZM40.2344-14.209C26.8066-14.209 19.873-21.9727 19.873-31.7871C19.873-40.0879 24.9023-47.2168 35.791-50.0977C38.916-50.9277 40.0391-52.3438 40.2832-55.4688C41.6992-76.2207 57.7148-91.6504 76.4648-91.6504C91.4551-91.6504 102.93-83.3496 109.717-69.3359C111.084-66.5527 112.744-65.5762 116.064-65.5762C134.619-65.5762 145.898-54.0039 145.898-39.9414C145.898-25.6836 134.326-14.209 119.336-14.209ZM125 9.52148L42.0898 9.52148C40.1367 9.52148 38.5742 10.9863 38.5742 12.9883C38.5742 14.9414 40.1367 16.4062 42.0898 16.4062L125 16.4062C126.953 16.4062 128.516 14.9414 128.516 12.9883C128.516 10.9863 126.953 9.52148 125 9.52148ZM125 30.9082L42.0898 30.9082C40.1367 30.9082 38.5742 32.373 38.5742 34.375C38.5742 36.3281 40.1367 37.793 42.0898 37.793L125 37.793C126.953 37.793 128.516 36.3281 128.516 34.375C128.516 32.373 126.953 30.9082 125 30.9082Z"/>
</g>
</svg>
