<?xml version="1.0" encoding="UTF-8"?>
<!DOCTYPE svg
PUBLIC "-//W3C//DTD SVG 1.1//EN" "http://www.w3.org/Graphics/SVG/1.1/DTD/svg11.dtd">
<svg version="1.1" xmlns="http://www.w3.org/2000/svg" xmlns:xlink="http://www.w3.org/1999/xlink" width="30" height="30">
<g id="Regular-L" transform="matrix(.15 0 0 .15 2 20)">
 <path d="M37.3535 11.9141L105.811 11.9141C123.73 11.9141 137.646-1.61133 137.646-18.9941C137.646-19.2871 137.646-19.5312 137.646-19.7754C159.033-20.3613 171.436-33.4473 175.195-44.6777C176.807-48.9746 174.512-52.7344 170.312-52.7344C166.797-52.7344 163.33-50.9277 156.396-50.9277C140.234-50.9277 131.348-60.1562 131.348-74.8047C131.348-82.4707 133.838-86.084 133.838-89.4531C133.838-93.9941 129.98-96.1426 125.098-94.6289C112.793-90.918 100.293-77.5391 100.293-59.375C100.293-58.3984 100.342-57.4707 100.391-56.4941C92.8223-66.2598 81.8359-72.1191 68.8965-72.1191C48.291-72.1191 31.1035-56.0059 29.1016-35.3516C18.6523-32.1777 11.2793-23.3398 11.2793-11.8652C11.2793 1.80664 21.582 11.9141 37.3535 11.9141ZM108.203-59.5703C108.203-73.1934 117.041-82.6172 125.293-86.377L125.879-85.9375C124.707-82.9102 123.633-78.5156 123.633-73.291C123.633-55.5176 136.475-43.2617 154.688-43.2617C159.229-43.2617 163.672-44.0918 166.846-45.166L167.236-44.7754C164.014-37.4512 153.906-27.6855 136.426-27.6367C133.008-39.0625 122.9-47.4121 109.814-49.2188C108.74-52.4902 108.203-55.957 108.203-59.5703ZM37.1582 3.36914C25.8789 3.36914 19.8242-3.27148 19.8242-11.6699C19.8242-18.8965 24.2676-25.0488 33.6914-27.6367C36.4258-28.3691 37.4023-29.541 37.6465-32.3242C39.0625-50.2441 52.6855-63.5254 68.8965-63.5254C81.8848-63.5254 91.6992-56.2012 97.6074-44.4336C98.8281-41.9922 100.195-41.1621 103.076-41.1621C119.287-41.1621 129.102-31.0547 129.102-18.75C129.102-6.49414 119.043 3.36914 105.957 3.36914Z"/>
</g>
</svg>
