<?xml version="1.0" encoding="UTF-8"?>
<!DOCTYPE svg
PUBLIC "-//W3C//DTD SVG 1.1//EN" "http://www.w3.org/Graphics/SVG/1.1/DTD/svg11.dtd">
<svg version="1.1" xmlns="http://www.w3.org/2000/svg" xmlns:xlink="http://www.w3.org/1999/xlink" width="30" height="30">
<g id="Regular-L" transform="matrix(.15 0 0 .15 2 20)">
<path d="M40.3809-5.61523L118.848-5.61523C139.16-5.61523 154.492-20.9961 154.492-40.1855C154.492-59.9121 138.232-74.3652 117.139-74.3652C109.277-90.0879 94.9219-100.244 76.4648-100.244C53.0273-100.244 33.6914-81.6895 31.6895-58.252C20.166-55.0293 11.2793-45.2637 11.2793-32.0312C11.2793-17.4316 21.9238-5.61523 40.3809-5.61523ZM40.2344-14.209C26.8066-14.209 19.873-21.9727 19.873-31.7871C19.873-40.0879 24.9023-47.2168 35.791-50.0977C38.916-50.9277 40.0391-52.3438 40.2832-55.4688C41.6992-76.2207 57.7148-91.6504 76.4648-91.6504C91.4551-91.6504 102.93-83.3496 109.717-69.3359C111.084-66.5527 112.744-65.5762 116.064-65.5762C134.619-65.5762 145.898-54.0039 145.898-39.9414C145.898-25.6836 134.326-14.209 119.336-14.209ZM91.4551 24.1211L100.098 9.17969C101.123 7.42188 100.586 5.51758 98.9746 4.54102C97.3145 3.56445 95.4102 4.10156 94.3848 5.85938L85.6934 20.8984C84.7656 22.5586 85.2051 24.4629 86.9141 25.4395C88.5254 26.3672 90.5273 25.7812 91.4551 24.1211ZM106.201 42.041L125.195 9.08203C126.172 7.37305 125.684 5.51758 124.121 4.54102C122.559 3.61328 120.557 4.10156 119.531 5.81055L100.635 38.6719C99.6582 40.4297 100.098 42.334 101.758 43.3105C103.369 44.2383 105.225 43.7012 106.201 42.041ZM41.3574 24.1699L49.9512 9.22852C51.0254 7.4707 50.4883 5.56641 48.8281 4.58984C47.168 3.61328 45.3125 4.15039 44.2383 5.9082L35.5469 20.9473C34.6191 22.6074 35.0586 24.5117 36.7676 25.4883C38.4277 26.416 40.3809 25.8301 41.3574 24.1699ZM56.0547 42.0898L75.0977 9.13086C76.0742 7.42188 75.5859 5.56641 73.9746 4.58984C72.4121 3.66211 70.4102 4.15039 69.3848 5.85938L50.4883 38.7207C49.5117 40.4785 50 42.3828 51.6113 43.3594C53.2227 44.2871 55.0781 43.75 56.0547 42.0898Z"/>
</g>
</svg>
