<?xml version="1.0" encoding="UTF-8"?>
<!DOCTYPE svg
PUBLIC "-//W3C//DTD SVG 1.1//EN" "http://www.w3.org/Graphics/SVG/1.1/DTD/svg11.dtd">
<svg version="1.1" xmlns="http://www.w3.org/2000/svg" xmlns:xlink="http://www.w3.org/1999/xlink" width="30" height="30">
<g id="Regular-L" transform="matrix(.15 0 0 .15 2 20)">
<path d="M40.3809 12.7441L118.848 12.7441C139.16 12.7441 154.492-2.68555 154.492-21.8262C154.492-41.6016 138.232-56.0547 117.139-56.0547C109.277-71.7773 94.9219-81.9336 76.4648-81.9336C53.0273-81.9336 33.6914-63.3301 31.6895-39.9414C20.166-36.6699 11.2793-26.9531 11.2793-13.6719C11.2793 0.878906 21.9238 12.7441 40.3809 12.7441ZM40.2344 4.15039C26.8066 4.15039 19.873-3.61328 19.873-13.4277C19.873-21.7285 24.9023-28.8574 35.791-31.7383C38.916-32.5684 40.0391-33.9844 40.2832-37.1094C41.6992-57.8613 57.7148-73.3398 76.4648-73.3398C91.4551-73.3398 102.93-64.9902 109.717-50.9766C111.084-48.1934 112.744-47.2656 116.064-47.2656C134.619-47.2656 145.898-35.6934 145.898-21.582C145.898-7.37305 134.326 4.15039 119.336 4.15039Z"/>
</g>
</svg>
