<?xml version="1.0" encoding="UTF-8"?>
<!DOCTYPE svg
PUBLIC "-//W3C//DTD SVG 1.1//EN" "http://www.w3.org/Graphics/SVG/1.1/DTD/svg11.dtd">
<svg version="1.1" xmlns="http://www.w3.org/2000/svg" xmlns:xlink="http://www.w3.org/1999/xlink" width="30" height="30">
<g id="Regular-L" transform="matrix(.15 0 0 .15 2 20)">
<path d="M40.3809-5.61523L118.848-5.61523C139.16-5.61523 154.492-20.9961 154.492-40.1855C154.492-59.9121 138.232-74.3652 117.139-74.3652C109.277-90.0879 94.9219-100.244 76.4648-100.244C53.0273-100.244 33.6914-81.6895 31.6895-58.252C20.166-55.0293 11.2793-45.2637 11.2793-32.0312C11.2793-17.4316 21.9238-5.61523 40.3809-5.61523ZM40.2344-14.209C26.8066-14.209 19.873-21.9727 19.873-31.7871C19.873-40.0879 24.9023-47.2168 35.791-50.0977C38.916-50.9277 40.0391-52.3438 40.2832-55.4688C41.6992-76.2207 57.7148-91.6504 76.4648-91.6504C91.4551-91.6504 102.93-83.3496 109.717-69.3359C111.084-66.5527 112.744-65.5762 116.064-65.5762C134.619-65.5762 145.898-54.0039 145.898-39.9414C145.898-25.6836 134.326-14.209 119.336-14.209ZM44.5312 25.9766C45.6543 25.9766 46.3867 24.9512 46.3379 23.8281L45.9961 17.627L51.123 21.0449C52.0508 21.6797 53.3691 21.4844 54.0039 20.5566C54.541 19.5801 54.1992 18.2617 53.0273 17.7246L47.5098 14.9902L53.0762 12.1582C54.1992 11.5723 54.4922 10.3516 54.0527 9.375C53.4668 8.39844 52.0508 8.25195 51.123 8.83789L45.9961 12.3535L46.3867 6.15234C46.4844 4.93164 45.6543 3.95508 44.5312 3.95508C43.2617 3.95508 42.5293 4.93164 42.5781 6.15234L42.9688 12.3535L37.7441 8.83789C36.8164 8.25195 35.5469 8.34961 34.9609 9.375C34.4238 10.3516 34.7168 11.5723 35.8398 12.1582L41.4062 14.9902L35.8398 17.7246C34.7168 18.3105 34.375 19.5312 34.9121 20.5566C35.4492 21.5332 36.8164 21.6797 37.7441 21.0938L42.9688 17.6758L42.627 23.8281C42.5781 24.9512 43.2617 25.9766 44.5312 25.9766ZM114.307 25.9766C115.479 25.9766 116.211 24.9512 116.162 23.8281L115.771 17.627L120.947 21.0449C121.875 21.6797 123.193 21.4844 123.779 20.5566C124.365 19.5801 123.975 18.2617 122.803 17.7246L117.334 14.9902L122.852 12.1582C123.975 11.5723 124.316 10.3516 123.828 9.375C123.291 8.39844 121.875 8.25195 120.947 8.83789L115.771 12.3535L116.211 6.15234C116.309 4.93164 115.479 3.95508 114.307 3.95508C113.086 3.95508 112.354 4.93164 112.402 6.15234L112.744 12.3535L107.52 8.83789C106.641 8.25195 105.371 8.34961 104.785 9.375C104.199 10.3516 104.541 11.5723 105.664 12.1582L111.182 14.9902L105.664 17.7246C104.492 18.3105 104.15 19.5312 104.688 20.5566C105.273 21.5332 106.641 21.6797 107.52 21.0938L112.744 17.6758L112.451 23.8281C112.402 24.9512 113.086 25.9766 114.307 25.9766ZM79.3945 25.9766C80.5664 25.9766 81.2988 24.9512 81.25 23.8281L80.8594 17.627L86.0352 21.0449C86.9629 21.6797 88.2812 21.4844 88.8672 20.5566C89.4531 19.5801 89.0625 18.2617 87.9395 17.7246L82.4219 14.9902L87.9883 12.1582C89.0625 11.5723 89.4043 10.3516 88.916 9.375C88.3789 8.39844 86.9629 8.25195 86.0352 8.83789L80.8594 12.3535L81.2988 6.15234C81.3965 4.93164 80.5664 3.95508 79.3945 3.95508C78.1738 3.95508 77.4414 4.93164 77.4902 6.15234L77.832 12.3535L72.6562 8.83789C71.7285 8.25195 70.459 8.34961 69.873 9.375C69.3359 10.3516 69.6289 11.5723 70.752 12.1582L76.2695 14.9902L70.752 17.7246C69.5801 18.3105 69.2871 19.5312 69.7754 20.5566C70.3613 21.5332 71.7285 21.6797 72.6562 21.0938L77.832 17.6758L77.5391 23.8281C77.4902 24.9512 78.1738 25.9766 79.3945 25.9766ZM65.7227 49.6094C66.8945 49.6094 67.627 48.584 67.5781 47.4609L67.1875 41.3086L72.3633 44.6777C73.291 45.3125 74.6094 45.1172 75.1953 44.1895C75.7812 43.2617 75.3906 41.8945 74.2676 41.3574L68.75 38.623L74.3164 35.791C75.3906 35.2051 75.7324 33.9844 75.2441 33.0078C74.707 32.0312 73.291 31.8848 72.3633 32.5195L67.1875 35.9863L67.627 29.7852C67.7246 28.5645 66.8945 27.5879 65.7227 27.5879C64.502 27.5879 63.7695 28.5645 63.8184 29.7852L64.1602 35.9863L58.9844 32.5195C58.0566 31.8848 56.7871 31.9824 56.2012 33.0078C55.6641 33.9844 55.957 35.2051 57.0801 35.791L62.5977 38.623L57.0801 41.4062C55.9082 41.9434 55.6152 43.2129 56.1035 44.1895C56.6895 45.2148 58.0566 45.3613 58.9844 44.7266L64.1602 41.3086L63.8672 47.4609C63.8184 48.584 64.502 49.6094 65.7227 49.6094ZM30.8594 49.6094C31.9824 49.6094 32.7148 48.584 32.666 47.4609L32.3242 41.3086L37.4512 44.6777C38.3789 45.3125 39.6973 45.1172 40.332 44.1895C40.918 43.2617 40.5273 41.8945 39.3555 41.3574L33.8379 38.623L39.4043 35.791C40.5273 35.2051 40.8203 33.9844 40.3809 33.0078C39.7949 32.0312 38.3789 31.8848 37.4512 32.5195L32.3242 35.9863L32.7148 29.7852C32.8125 28.5645 31.9824 27.5879 30.8594 27.5879C29.5898 27.5879 28.8574 28.5645 28.9062 29.7852L29.2969 35.9863L24.0723 32.5195C23.1445 31.8848 21.875 31.9824 21.2891 33.0078C20.752 33.9844 21.0449 35.2051 22.168 35.791L27.7344 38.623L22.168 41.4062C21.0449 41.9434 20.7031 43.2129 21.2402 44.1895C21.7773 45.2148 23.1445 45.3613 24.0723 44.7266L29.2969 41.3086L28.9551 47.4609C28.9062 48.584 29.5898 49.6094 30.8594 49.6094ZM100.635 49.6094C101.807 49.6094 102.539 48.584 102.49 47.4609L102.1 41.3086L107.275 44.6777C108.203 45.3125 109.521 45.1172 110.107 44.1895C110.693 43.2617 110.303 41.8945 109.131 41.3574L103.662 38.623L109.18 35.791C110.303 35.2051 110.645 33.9844 110.156 33.0078C109.619 32.0312 108.203 31.8848 107.275 32.5195L102.1 35.9863L102.539 29.7852C102.637 28.5645 101.807 27.5879 100.635 27.5879C99.4141 27.5879 98.6816 28.5645 98.7305 29.7852L99.0723 35.9863L93.8477 32.5195C92.9688 31.8848 91.6992 31.9824 91.1133 33.0078C90.5273 33.9844 90.8691 35.2051 91.9922 35.791L97.5098 38.623L91.9922 41.4062C90.8203 41.9434 90.4785 43.2129 91.0156 44.1895C91.6016 45.2148 92.9688 45.3613 93.8477 44.7266L99.0723 41.3086L98.7793 47.4609C98.7305 48.584 99.4141 49.6094 100.635 49.6094Z"/>
</g>
</svg>
