<?xml version="1.0" encoding="UTF-8"?>
<!DOCTYPE svg
PUBLIC "-//W3C//DTD SVG 1.1//EN" "http://www.w3.org/Graphics/SVG/1.1/DTD/svg11.dtd">
<svg version="1.1" xmlns="http://www.w3.org/2000/svg" xmlns:xlink="http://www.w3.org/1999/xlink" width="30" height="30">
<g id="Regular-L" transform="matrix(.15 0 0 .15 2 20)">
<path d="M37.3535 3.07617L105.811 3.07617C123.73 3.07617 137.646-10.498 137.646-27.8809C137.646-28.125 137.646-28.418 137.646-28.6621C159.033-29.248 171.436-42.334 175.195-53.5645C176.807-57.8613 174.512-61.6211 170.312-61.6211C166.797-61.6211 163.33-59.8145 156.396-59.8145C140.234-59.8145 131.348-69.043 131.348-83.6914C131.348-91.3574 133.838-94.9707 133.838-98.3398C133.838-102.881 129.98-105.078 125.098-103.516C112.793-99.8047 100.293-86.4258 100.293-68.2617C100.293-67.2852 100.342-66.3574 100.391-65.3809C92.8223-75.1465 81.8359-80.957 68.8965-80.957C48.291-80.957 31.1035-64.8438 29.1016-44.1895C18.6523-41.0645 11.2793-32.1777 11.2793-20.7031C11.2793-7.03125 21.582 3.07617 37.3535 3.07617ZM108.203-68.5059C108.203-82.0801 117.041-91.5039 125.293-95.3125L125.879-94.873C124.707-91.8457 123.633-87.4023 123.633-82.2266C123.633-64.4043 136.475-52.1484 154.688-52.1484C159.229-52.1484 163.672-52.9785 166.846-54.0527L167.236-53.6621C164.014-46.3379 153.906-36.5723 136.426-36.5234C133.008-47.9492 122.9-56.25 109.863-58.0566C108.74-61.3281 108.203-64.8438 108.203-68.5059ZM37.1582-5.51758C25.8789-5.51758 19.8242-12.1094 19.8242-20.5078C19.8242-27.7832 24.2676-33.8867 33.6914-36.4746C36.4258-37.207 37.4023-38.4277 37.6465-41.2109C39.0625-59.082 52.6855-72.4121 68.8965-72.4121C81.8848-72.4121 91.6992-65.0391 97.6074-53.2715C98.8281-50.8301 100.195-50.0488 103.076-50.0488C119.287-50.0488 129.102-39.8926 129.102-27.6367C129.102-15.3809 119.043-5.51758 105.957-5.51758ZM88.1836 25.8789L76.2207 25.8789L82.2754 14.502C83.0078 13.1348 82.4219 12.1094 81.0547 12.1094L69.8242 12.1094C68.0664 12.1094 67.4805 12.7441 66.8945 14.0137L58.9844 32.0801C58.3008 33.5938 59.082 34.5703 60.6445 34.5703L70.6543 34.5703L62.6465 53.8086C62.3047 54.6387 62.5 55.3223 63.0859 55.5664C63.6719 55.8105 64.3555 55.6152 64.9902 54.8828L89.209 28.8574C90.4297 27.5391 89.9414 25.8789 88.1836 25.8789Z"/>
</g>
</svg>
