<?xml version="1.0" encoding="UTF-8"?>
<!DOCTYPE svg
PUBLIC "-//W3C//DTD SVG 1.1//EN" "http://www.w3.org/Graphics/SVG/1.1/DTD/svg11.dtd">
<svg version="1.1" xmlns="http://www.w3.org/2000/svg" xmlns:xlink="http://www.w3.org/1999/xlink" width="30" height="30">
<g id="Regular-L" transform="matrix(.15 0 0 .15 2 20)">
<path d="M128.76-91.1133C131.201-91.1133 133.203-93.1641 133.203-95.5078L133.203-110.205C133.203-112.646 131.201-114.648 128.76-114.648C126.318-114.648 124.316-112.646 124.316-110.205L124.316-95.5078C124.316-93.1641 126.318-91.1133 128.76-91.1133ZM93.3594-78.9551C95.1172-77.1973 97.998-77.2461 99.6582-78.9551C101.27-80.6641 101.318-83.4473 99.6582-85.1562L89.1602-95.6055C87.4512-97.3633 84.668-97.3145 82.959-95.6055C81.2988-93.9453 81.25-91.1133 82.959-89.4043ZM157.861-78.9551C159.521-77.2461 162.402-77.1973 164.16-78.9551L174.512-89.4043C176.27-91.1133 176.221-93.9453 174.512-95.6055C172.852-97.3145 170.068-97.3633 168.359-95.6055L157.861-85.1562C156.152-83.4473 156.201-80.6641 157.861-78.9551ZM37.3535 11.9141L105.811 11.9141C123.73 11.9141 137.646-1.61133 137.646-18.9941C137.646-19.3359 137.646-19.6777 137.646-20.0195C150.391-24.1211 159.473-36.0352 159.473-49.8535C159.473-66.9922 145.801-80.7129 128.711-80.7129C114.502-80.7129 102.637-71.1914 99.0723-58.1543C91.5527-66.8945 81.1035-72.1191 68.8965-72.1191C48.291-72.1191 31.1035-56.0059 29.1016-35.3516C18.6523-32.1777 11.2793-23.3398 11.2793-11.8652C11.2793 1.80664 21.582 11.9141 37.3535 11.9141ZM128.711-72.7539C141.553-72.7539 151.562-62.6953 151.562-49.8535C151.562-39.8926 145.361-31.2988 136.328-27.8809C132.52-40.332 120.752-48.9746 105.908-49.5605C105.908-49.6582 105.908-49.7559 105.908-49.8535C105.908-62.6953 115.918-72.7539 128.711-72.7539ZM37.1582 3.36914C25.8789 3.36914 19.8242-3.27148 19.8242-11.6699C19.8242-18.8965 24.2676-25.0488 33.6914-27.6367C36.4258-28.3691 37.4023-29.541 37.6465-32.3242C39.0625-50.2441 52.6855-63.5254 68.8965-63.5254C81.8848-63.5254 91.6992-56.2012 97.6074-44.4336C98.8281-41.9922 100.195-41.1621 103.076-41.1621C119.287-41.1621 129.102-31.0547 129.102-18.75C129.102-6.49414 119.043 3.36914 105.957 3.36914ZM174.316-45.459L189.014-45.459C191.406-45.459 193.359-47.4121 193.408-49.8535C193.457-52.2949 191.406-54.248 189.014-54.248L174.316-54.248C171.924-54.248 169.873-52.2949 169.873-49.8535C169.873-47.4121 171.924-45.459 174.316-45.459ZM168.359-4.00391C170.068-2.24609 172.852-2.34375 174.512-4.05273C176.221-5.76172 176.27-8.54492 174.512-10.2539L164.062-20.6543C162.354-22.3145 159.57-22.3633 157.861-20.6543C156.152-18.9453 156.152-16.1133 157.861-14.4043Z"/>
</g>
</svg>
