<?xml version="1.0" encoding="UTF-8"?>
<!DOCTYPE svg
PUBLIC "-//W3C//DTD SVG 1.1//EN" "http://www.w3.org/Graphics/SVG/1.1/DTD/svg11.dtd">
<svg version="1.1" xmlns="http://www.w3.org/2000/svg" xmlns:xlink="http://www.w3.org/1999/xlink" width="30" height="30">
<g id="Regular-L" transform="matrix(.15 0 0 .15 2 20)">
 <path d="M37.3535 3.07617L105.811 3.07617C123.73 3.07617 137.646-10.498 137.646-27.8809C137.646-28.125 137.646-28.418 137.646-28.6621C159.033-29.248 171.436-42.334 175.195-53.5645C176.807-57.8613 174.512-61.6211 170.312-61.6211C166.797-61.6211 163.33-59.8145 156.396-59.8145C140.234-59.8145 131.348-69.043 131.348-83.6914C131.348-91.3574 133.838-94.9707 133.838-98.3398C133.838-102.881 129.98-105.078 125.098-103.516C112.793-99.8047 100.293-86.4258 100.293-68.2617C100.293-67.2852 100.342-66.3574 100.391-65.3809C92.8223-75.1465 81.8359-80.957 68.8965-80.957C48.291-80.957 31.1035-64.8438 29.1016-44.1895C18.6523-41.0645 11.2793-32.1777 11.2793-20.7031C11.2793-7.03125 21.582 3.07617 37.3535 3.07617ZM108.203-68.5059C108.203-82.0801 117.041-91.5039 125.293-95.3125L125.879-94.873C124.707-91.8457 123.633-87.4023 123.633-82.2266C123.633-64.4043 136.475-52.1484 154.688-52.1484C159.229-52.1484 163.672-52.9785 166.846-54.0527L167.236-53.6621C164.014-46.3379 153.906-36.5723 136.426-36.5234C133.008-47.9492 122.9-56.25 109.863-58.0566C108.74-61.3281 108.203-64.8438 108.203-68.5059ZM37.1582-5.51758C25.8789-5.51758 19.8242-12.1094 19.8242-20.5078C19.8242-27.7832 24.2676-33.8867 33.6914-36.4746C36.4258-37.207 37.4023-38.4277 37.6465-41.2109C39.0625-59.082 52.6855-72.4121 68.8965-72.4121C81.8848-72.4121 91.6992-65.0391 97.6074-53.2715C98.8281-50.8301 100.195-50.0488 103.076-50.0488C119.287-50.0488 129.102-39.8926 129.102-27.6367C129.102-15.3809 119.043-5.51758 105.957-5.51758ZM85.9863 32.8613L94.6289 17.9199C95.6543 16.1621 95.1172 14.2578 93.5059 13.2812C91.7969 12.3047 89.9414 12.8418 88.916 14.5996L80.2246 29.6387C79.248 31.2988 79.7363 33.2031 81.3965 34.1797C83.0566 35.1074 85.0586 34.5215 85.9863 32.8613ZM35.8398 32.9102L44.4824 17.9688C45.5078 16.2109 44.9707 14.3066 43.3594 13.3301C41.6992 12.3535 39.7949 12.9395 38.7695 14.6484L30.0781 29.6875C29.1504 31.3477 29.5898 33.252 31.2988 34.2285C32.9102 35.1562 34.9121 34.5703 35.8398 32.9102ZM105.762 50.5859L114.404 35.6445C115.43 33.8867 114.893 31.9824 113.281 31.0059C111.621 30.0293 109.717 30.5664 108.691 32.3242L100 47.3633C99.0234 48.9746 99.5117 50.9277 101.221 51.9043C102.832 52.832 104.834 52.2461 105.762 50.5859ZM55.6152 50.6348L64.2578 35.6934C65.332 33.9355 64.7949 32.0312 63.1348 31.0547C61.4746 30.0781 59.5703 30.6152 58.5449 32.373L49.8535 47.4121C48.9258 49.0234 49.3652 50.9766 51.0742 51.9531C52.6855 52.8809 54.6875 52.2949 55.6152 50.6348Z"/>
</g>
</svg>
