<?xml version="1.0" encoding="UTF-8"?>
<!DOCTYPE svg
PUBLIC "-//W3C//DTD SVG 1.1//EN" "http://www.w3.org/Graphics/SVG/1.1/DTD/svg11.dtd">
<svg version="1.1" xmlns="http://www.w3.org/2000/svg" xmlns:xlink="http://www.w3.org/1999/xlink" width="30" height="30">
<g id="Regular-L" transform="matrix(.15 0 0 .15 2 20)">
<path d="M40.3809-5.61523L118.848-5.61523C139.16-5.61523 154.492-20.9961 154.492-40.1855C154.492-59.9121 138.232-74.3652 117.139-74.3652C109.277-90.0879 94.9219-100.244 76.4648-100.244C53.0273-100.244 33.6914-81.6895 31.6895-58.252C20.166-55.0293 11.2793-45.2637 11.2793-32.0312C11.2793-17.4316 21.9238-5.61523 40.3809-5.61523ZM40.2344-14.209C26.8066-14.209 19.873-21.9727 19.873-31.7871C19.873-40.0879 24.9023-47.2168 35.791-50.0977C38.916-50.9277 40.0391-52.3438 40.2832-55.4688C41.6992-76.2207 57.7148-91.6504 76.4648-91.6504C91.4551-91.6504 102.93-83.3496 109.717-69.3359C111.084-66.5527 112.744-65.5762 116.064-65.5762C134.619-65.5762 145.898-54.0039 145.898-39.9414C145.898-25.6836 134.326-14.209 119.336-14.209ZM96.0449 18.7988L83.8379 18.7988L90.4785 6.00586C91.2109 4.63867 90.6738 3.56445 89.2578 3.56445L77.6367 3.56445C75.8301 3.56445 75.1953 4.19922 74.6582 5.51758L66.0156 25.1953C65.332 26.8066 66.0645 27.7344 67.6758 27.7344L77.9785 27.7344L69.3359 48.7793C68.9941 49.6094 69.1895 50.3418 69.7754 50.5859C70.3613 50.8301 71.0449 50.6348 71.7285 49.9023L97.168 21.9238C98.4375 20.5078 97.9004 18.7988 96.0449 18.7988Z"/>
</g>
</svg>
