<?xml version="1.0" encoding="UTF-8"?>
<!DOCTYPE svg
PUBLIC "-//W3C//DTD SVG 1.1//EN" "http://www.w3.org/Graphics/SVG/1.1/DTD/svg11.dtd">
<svg version="1.1" xmlns="http://www.w3.org/2000/svg" xmlns:xlink="http://www.w3.org/1999/xlink" width="30" height="30">
<g id="Regular-L" transform="matrix(.15 0 0 .15 2 20)">
<path d="M128.271-100C130.713-100 132.715-102.051 132.715-104.395L132.715-119.141C132.715-121.533 130.713-123.535 128.271-123.535C125.83-123.535 123.828-121.533 123.828-119.141L123.828-104.395C123.828-102.051 125.83-100 128.271-100ZM92.8711-87.8418C94.6289-86.084 97.5098-86.1328 99.1699-87.8418C100.781-89.5508 100.83-92.334 99.1699-94.043L88.6719-104.541C86.9629-106.25 84.1797-106.201 82.4707-104.541C80.7617-102.832 80.7617-100 82.4707-98.291ZM157.373-87.8418C159.033-86.1328 161.914-86.084 163.672-87.8418L174.023-98.291C175.781-100 175.732-102.832 174.023-104.541C172.314-106.201 169.58-106.25 167.822-104.541L157.373-94.043C155.664-92.334 155.713-89.5508 157.373-87.8418ZM37.3535 3.07617L105.811 3.07617C123.73 3.07617 137.646-10.498 137.646-27.8809C137.646-28.2715 137.646-28.6621 137.646-29.0527C150.146-33.3008 158.984-45.0684 158.984-58.7402C158.984-75.8789 145.312-89.5996 128.223-89.5996C114.16-89.5996 102.393-80.2734 98.6816-67.4316C91.2109-75.9277 80.9082-80.957 68.8965-80.957C48.291-80.957 31.1035-64.8438 29.1016-44.1895C18.6523-41.0645 11.2793-32.1777 11.2793-20.7031C11.2793-7.03125 21.582 3.07617 37.3535 3.07617ZM105.42-58.7402C105.42-71.582 115.43-81.6406 128.223-81.6406C141.016-81.6406 151.074-71.582 151.074-58.7402C151.074-48.9746 145.02-40.4785 136.279-36.9629C132.373-49.4141 120.41-58.0566 105.42-58.4473C105.42-58.5449 105.42-58.6426 105.42-58.7402ZM37.1582-5.51758C25.8789-5.51758 19.8242-12.1094 19.8242-20.5078C19.8242-27.7832 24.2676-33.8867 33.6914-36.4746C36.4258-37.207 37.4023-38.4277 37.6465-41.2109C39.0625-59.082 52.6855-72.4121 68.8965-72.4121C81.8848-72.4121 91.6992-65.0391 97.6074-53.2715C98.8281-50.8301 100.195-50.0488 103.076-50.0488C119.287-50.0488 129.102-39.8926 129.102-27.6367C129.102-15.3809 119.043-5.51758 105.957-5.51758ZM173.828-54.3457L188.525-54.3457C190.918-54.3457 192.871-56.2988 192.92-58.7402C192.92-61.1816 190.918-63.1348 188.525-63.1348L173.828-63.1348C171.436-63.1348 169.385-61.1816 169.385-58.7402C169.385-56.2988 171.436-54.3457 173.828-54.3457ZM167.822-12.8906C169.58-11.1816 172.314-11.2305 174.023-12.9395C175.732-14.6484 175.781-17.4316 174.023-19.1406L163.574-29.541C161.865-31.2012 159.082-31.25 157.373-29.541C155.664-27.832 155.664-25 157.373-23.291ZM85.9863 32.8613L94.6289 17.9199C95.6543 16.1621 95.1172 14.2578 93.5059 13.2812C91.7969 12.3047 89.9414 12.8418 88.916 14.5996L80.2246 29.6387C79.248 31.2988 79.7363 33.2031 81.3965 34.1797C83.0566 35.1074 85.0586 34.5215 85.9863 32.8613ZM35.8398 32.9102L44.4824 17.9688C45.5078 16.2109 44.9707 14.3066 43.3594 13.3301C41.6992 12.3535 39.7949 12.9395 38.7695 14.6484L30.0781 29.6875C29.1504 31.3477 29.5898 33.252 31.2988 34.2285C32.9102 35.1562 34.9121 34.5703 35.8398 32.9102ZM105.762 50.5859L114.404 35.6445C115.43 33.8867 114.893 31.9824 113.281 31.0059C111.621 30.0293 109.717 30.5664 108.691 32.3242L100 47.3633C99.0234 48.9746 99.5117 50.9277 101.221 51.9043C102.832 52.832 104.834 52.2461 105.762 50.5859ZM55.6152 50.6348L64.2578 35.6934C65.332 33.9355 64.7949 32.0312 63.1348 31.0547C61.4746 30.0781 59.5703 30.6152 58.5449 32.373L49.8535 47.4121C48.9258 49.0234 49.3652 50.9766 51.0742 51.9531C52.6855 52.8809 54.6875 52.2949 55.6152 50.6348Z"/>
</g>
</svg>
