<?xml version="1.0" encoding="UTF-8"?>
<!--Generator: Apple Native CoreSVG 149-->
<!DOCTYPE svg
PUBLIC "-//W3C//DTD SVG 1.1//EN"
       "http://www.w3.org/Graphics/SVG/1.1/DTD/svg11.dtd">
<svg version="1.1" xmlns="http://www.w3.org/2000/svg" xmlns:xlink="http://www.w3.org/1999/xlink" width="30" height="30">
    <g id="Regular-L" transform="matrix(.15 0 0 .15 2 20)" color="#FFCA00">
  <path d="M28.0273 23.9258L127.1 23.9258C136.279 23.9258 142.188 17.1387 142.188 8.74023C142.188 6.25 141.602 3.71094 140.234 1.31836L90.625-87.0605C87.793-92.1387 82.666-94.7266 77.5879-94.7266C72.4609-94.7266 67.2852-92.1387 64.502-87.0605L14.8926 1.36719C13.623 3.75977 12.8906 6.25 12.8906 8.74023C12.8906 17.1387 18.8477 23.9258 28.0273 23.9258ZM77.5391-17.8711C74.7559-17.8711 73.1445-19.5312 73.0957-22.4609L72.3633-56.8359C72.3145-59.7656 74.4141-61.8652 77.4902-61.8652C80.5176-61.8652 82.7637-59.7168 82.7148-56.7871L81.8848-22.4609C81.8359-19.4824 80.2734-17.8711 77.5391-17.8711ZM77.5391 2.49023C74.1211 2.49023 71.1426-0.292969 71.1426-3.66211C71.1426-7.08008 74.0723-9.86328 77.5391-9.86328C81.0547-9.86328 83.9355-7.12891 83.9355-3.66211C83.9355-0.244141 81.0059 2.49023 77.5391 2.49023Z" fill="currentColor"/>
 </g>
</svg>
