<?xml version="1.0" encoding="UTF-8"?>
<!DOCTYPE svg
PUBLIC "-//W3C//DTD SVG 1.1//EN" "http://www.w3.org/Graphics/SVG/1.1/DTD/svg11.dtd">
<svg version="1.1" xmlns="http://www.w3.org/2000/svg" xmlns:xlink="http://www.w3.org/1999/xlink" width="30" height="30">
<g id="Regular-L" transform="matrix(.15 0 0 .15 2 20)">
<path d="M109.717-12.8906C74.4629-12.8906 52.5879-34.082 52.5879-68.2129C52.5879-77.7344 54.1504-86.0352 56.5918-90.9668C57.373-92.627 57.5684-93.457 57.5684-94.5312C57.5684-96.3379 55.9082-98.3887 53.6133-98.3887C53.125-98.3887 52.002-98.2422 50.4395-97.6562C27.4414-88.4277 11.2793-64.0625 11.2793-37.8418C11.2793 0.0488281 38.8184 27.6855 76.709 27.6855C103.516 27.6855 125.879 13.2812 135.938-9.76562C136.572-11.2305 136.67-12.4023 136.67-12.9883C136.67-15.332 134.814-16.8457 133.057-16.8457C132.129-16.8457 131.445-16.748 130.176-16.2598C125.342-14.2578 117.285-12.8906 109.717-12.8906ZM19.7266-38.1836C19.7266-58.5449 30.6641-77.8809 47.8516-87.9395C45.7031-81.8848 44.5312-74.8535 44.5312-67.5293C44.5312-28.418 68.6035-4.98047 108.594-4.98047C115.234-4.98047 121.143-5.81055 126.367-7.61719C116.602 9.0332 97.7539 19.2383 77.0508 19.2383C43.8965 19.2383 19.7266-4.93164 19.7266-38.1836Z"/>
</g>
</svg>
