<?xml version="1.0" encoding="UTF-8"?>
<!DOCTYPE svg
PUBLIC "-//W3C//DTD SVG 1.1//EN" "http://www.w3.org/Graphics/SVG/1.1/DTD/svg11.dtd">
<svg version="1.1" xmlns="http://www.w3.org/2000/svg" xmlns:xlink="http://www.w3.org/1999/xlink" width="30" height="30">
<g id="Regular-L" transform="matrix(.15 0 0 .15 2 20)">
<path d="M83.8867-98.8281C83.8867-101.367 81.6895-103.564 79.1504-103.564C76.6113-103.564 74.4629-101.367 74.4629-98.8281L74.4629-85.2539C74.4629-82.666 76.6113-80.5176 79.1504-80.5176C81.6895-80.5176 83.8867-82.666 83.8867-85.2539ZM110.889-73.877C109.082-72.0703 109.082-69.043 110.889-67.2363C112.744-65.4297 115.723-65.3809 117.578-67.2363L127.246-76.9043C129.053-78.7109 129.053-81.7871 127.246-83.5938C125.439-85.4004 122.412-85.4004 120.605-83.5938ZM40.7227-67.2363C42.4805-65.4297 45.5078-65.4297 47.3145-67.2363C49.1699-68.9941 49.1699-72.1191 47.4121-73.877L37.793-83.5938C36.0352-85.3516 32.959-85.4004 31.1523-83.5938C29.3457-81.7871 29.3457-78.7109 31.1035-76.9531ZM79.1016-66.9922C61.9141-66.9922 47.7051-52.7344 47.7051-35.498C47.7051-18.2617 61.9141-4.05273 79.1016-4.05273C96.2891-4.05273 110.547-18.2617 110.547-35.498C110.547-52.7344 96.2891-66.9922 79.1016-66.9922ZM79.1016-58.7402C91.7969-58.7402 102.295-48.1934 102.295-35.498C102.295-22.8027 91.7969-12.3047 79.1016-12.3047C66.4062-12.3047 55.9082-22.8027 55.9082-35.498C55.9082-48.1934 66.4062-58.7402 79.1016-58.7402ZM142.334-30.8105C144.873-30.8105 147.07-32.959 147.07-35.498C147.07-38.0371 144.873-40.2344 142.334-40.2344L128.809-40.2344C126.221-40.2344 124.072-38.0371 124.072-35.498C124.072-32.959 126.221-30.8105 128.809-30.8105ZM16.0156-40.2344C13.4277-40.2344 11.2793-38.0371 11.2793-35.498C11.2793-32.959 13.4277-30.8105 16.0156-30.8105L29.541-30.8105C32.0801-30.8105 34.2773-32.959 34.2773-35.498C34.2773-38.0371 32.0801-40.2344 29.541-40.2344ZM117.529-3.71094C115.723-5.51758 112.744-5.51758 110.889-3.71094C109.082-1.9043 109.082 1.07422 110.889 2.92969L120.605 12.5977C122.412 14.4043 125.439 14.3555 127.246 12.5488C129.053 10.7422 129.053 7.76367 127.246 5.9082ZM31.0547 5.85938C29.248 7.66602 29.248 10.6934 31.0059 12.5C32.8125 14.3066 35.8887 14.3555 37.6953 12.5488L47.3145 2.92969C49.1699 1.17188 49.1699-1.85547 47.4121-3.66211C45.6055-5.51758 42.5293-5.51758 40.7227-3.66211ZM83.8867 14.209C83.8867 11.6699 81.6895 9.52148 79.1504 9.52148C76.6113 9.52148 74.4629 11.6699 74.4629 14.209L74.4629 27.7832C74.4629 30.3711 76.6113 32.5195 79.1504 32.5195C81.6895 32.5195 83.8867 30.3711 83.8867 27.7832Z"/>
</g>
</svg>
